# xmcd
#
# Track frame offsets: 
#        150
#        13313
#        25720
#        42488
#        54664
#        67489
#        81048
#        94353
#        107972
#        119077
#        130168
#        143155
#        154135
#        163734
#        178468
#        198070
#        229365
#
# Disc length: 4440 seconds
#
# Revision: 1
# Processed by: cddbd v1.5.1PL0 Copyright (c) Steve Scherf et al.
# Submitted via: ExactAudioCopy v0.95a3
#
DISCID=03115611
DTITLE=Frank Sinatra - The Platinum Collection - Disc 3
DYEAR=2004
DGENRE=Jazz
TTITLE0=You Make Me Feel So Young
TTITLE1=Nice 'N' Easy
TTITLE2=Here's That Rainy Day
TTITLE3=Pennies From Heaven
TTITLE4=April In Paris
TTITLE5=From Here To Eternity
TTITLE6=Someone To Watch Over Me
TTITLE7=In The Wee Small Hours Of The Morning
TTITLE8=I Tought About You 
TTITLE9=Too Marvelous For Words
TTITLE10=Autumn Leaves
TTITLE11=Dancing In The Dark
TTITLE12=All Of Me
TTITLE13=As Time Goes By
TTITLE14=September Song
TTITLE15=One For My Baby (And One More For The Road)
TTITLE16=Data Audio
EXTD=YEAR: 2004
EXTT0=
EXTT1=
EXTT2=
EXTT3=
EXTT4=
EXTT5=
EXTT6=
EXTT7=
EXTT8=
EXTT9=
EXTT10=
EXTT11=
EXTT12=
EXTT13=
EXTT14=
EXTT15=
EXTT16=
PLAYORDER=
